<svg width="24" height="24" viewBox="0 0 24 24" fill="none" xmlns="http://www.w3.org/2000/svg">
<path d="M11.76 21.5999C6.45807 21.5999 2.16 17.3018 2.16 11.9999C2.16 6.69797 6.45807 2.3999 11.76 2.3999C15.7889 2.3999 19.2381 4.88171 20.6622 8.3999M3.36 15.5999H6.16001C7.26458 15.5999 8.16 14.7045 8.16 13.5999V10.9999C8.16 9.89533 9.05543 8.9999 10.16 8.9999H12.16C13.2646 8.9999 14.16 8.10447 14.16 6.9999V3.5999M18 15.8399V15.7677M21.84 15.7564C21.84 18.2608 18 21.5999 18 21.5999C18 21.5999 14.16 18.2608 14.16 15.7564C14.16 13.6818 15.8792 11.9999 18 11.9999C20.1208 11.9999 21.84 13.6818 21.84 15.7564Z" stroke="#F6F6F6" stroke-width="2" stroke-linecap="round" stroke-linejoin="round"/>
</svg>
