<svg width="24" height="24" viewBox="0 0 24 24" fill="none" xmlns="http://www.w3.org/2000/svg">
<path d="M7.80002 19.2002V8.4002M15.6 19.2002V15.0002M8.40002 7.8002V5.4002C8.40002 4.73745 8.93728 4.2002 9.60002 4.2002H13.8C14.4628 4.2002 15 4.73745 15 5.4002V7.8002M15.6 10.8002H12.6V13.8002V15.0002H18V10.8002H15.6ZM15.6 10.8002V7.8002M15.6 7.8002H4.80002C3.47454 7.8002 2.40002 8.87471 2.40002 10.2002V17.4002C2.40002 18.7257 3.47454 19.8002 4.80002 19.8002H19.2C20.5255 19.8002 21.6 18.7257 21.6 17.4002V10.2002C21.6 8.87471 20.5255 7.8002 19.2 7.8002H15.6Z" stroke="#F6F6F6" stroke-width="2" stroke-linecap="round" stroke-linejoin="round"/>
</svg>